# xmcd CD database file
#
# Track frame offsets:
#	150
#	21713
#	37988
#	53910
#	61093
#	70913
#	80203
#	91265
#	98230
#	107813
#	117038
#	124163
#	131288
#	138653
#	146688
#	165300
#
# Disc length: 2417 seconds
#
# Revision: 5
# Processed by: cddbd v1.5.1PL0 Copyright (c) Steve Scherf et al.
# Submitted via: CDex 1.51
#
DISCID=e0096f10
DTITLE=Various Artist - ロードス島戦記
DYEAR=1990
DGENRE=Soundtrack
TTITLE0=プロローグ
TTITLE1=sherry/風のファンタジア
TTITLE2=Adesso e Fortuna 〜炎と永遠〜 <インスト・バージョン>
TTITLE3=ディードリットのテーマ 〜風の妖精〜
TTITLE4=パーンのテーマ 〜熱き友情〜
TTITLE5=回想
TTITLE6=暗黒皇帝ベルドのテーマ
TTITLE7=魔女カーラのテーマ
TTITLE8=死闘
TTITLE9=炎のドラゴン
TTITLE10=地下神殿
TTITLE11=ウォートの館
TTITLE12=呪文
TTITLE13=カーラの妖術
TTITLE14=sherry/Adesso e Fortuna 〜炎と永遠〜
TTITLE15=風のファンタジア <インスト・バージョン>
EXTD=YEAR: 1990
EXTT0=
EXTT1=
EXTT2=
EXTT3=
EXTT4=
EXTT5=
EXTT6=
EXTT7=
EXTT8=
EXTT9=
EXTT10=
EXTT11=
EXTT12=
EXTT13=
EXTT14=
EXTT15=
PLAYORDER=
